<?xml version="1.0" encoding="UTF-8" standalone="no"?>
<svg
   xmlns:dc="http://purl.org/dc/elements/1.1/"
   xmlns:cc="http://creativecommons.org/ns#"
   xmlns:rdf="http://www.w3.org/1999/02/22-rdf-syntax-ns#"
   xmlns:svg="http://www.w3.org/2000/svg"
   xmlns="http://www.w3.org/2000/svg"
   xmlns:sodipodi="http://sodipodi.sourceforge.net/DTD/sodipodi-0.dtd"
   xmlns:inkscape="http://www.inkscape.org/namespaces/inkscape"
   fill-opacity="1"
   color-rendering="auto"
   color-interpolation="auto"
   stroke="black"
   text-rendering="auto"
   stroke-linecap="square"
   width="650"
   stroke-miterlimit="10"
   stroke-opacity="1"
   shape-rendering="auto"
   fill="black"
   stroke-dasharray="none"
   font-weight="normal"
   stroke-width="1"
   viewBox="80 70 650 410"
   height="410"
   font-family="'Dialog'"
   font-style="normal"
   stroke-linejoin="miter"
   font-size="12"
   stroke-dashoffset="0"
   image-rendering="auto"
   id="svg4119"
   version="1.1"
   inkscape:version="0.91 r13725"
   sodipodi:docname="fig01.svg"
   inkscape:export-filename="/data/Arnaud/Mes Documents/Cours/Info/Licence/L3/S6/stage/rapport/images/fig01.png"
   inkscape:export-xdpi="90"
   inkscape:export-ydpi="90">
  <metadata
     id="metadata4326">
    <rdf:RDF>
      <cc:Work
         rdf:about="">
        <dc:format>image/svg+xml</dc:format>
        <dc:type
           rdf:resource="http://purl.org/dc/dcmitype/StillImage" />
        <dc:title></dc:title>
      </cc:Work>
    </rdf:RDF>
  </metadata>
  <sodipodi:namedview
     pagecolor="#ffffff"
     bordercolor="#666666"
     borderopacity="1"
     objecttolerance="10"
     gridtolerance="10"
     guidetolerance="10"
     inkscape:pageopacity="0"
     inkscape:pageshadow="2"
     inkscape:window-width="1680"
     inkscape:window-height="1027"
     id="namedview4324"
     showgrid="false"
     inkscape:snap-bbox="true"
     inkscape:zoom="1.6280702"
     inkscape:cx="309.37993"
     inkscape:cy="245.35713"
     inkscape:window-x="1366"
     inkscape:window-y="0"
     inkscape:window-maximized="1"
     inkscape:current-layer="g4122" />
  <!--Generated by the Batik Graphics2D SVG Generator-->
  <defs
     id="genericDefs" />
  <g
     id="g4122">
    <defs
       id="defs1">
      <clipPath
         clipPathUnits="userSpaceOnUse"
         id="clipPath1">
        <path
           d="M0 0 L2147483647 0 L2147483647 2147483647 L0 2147483647 L0 0 Z"
           id="path4126" />
      </clipPath>
      <clipPath
         clipPathUnits="userSpaceOnUse"
         id="clipPath2">
        <path
           d="M0 0 L0 40 L180 40 L180 0 Z"
           id="path4129" />
      </clipPath>
      <clipPath
         clipPathUnits="userSpaceOnUse"
         id="clipPath3">
        <path
           d="M-0.5 -0.5 L-0.5 39.5 L179.5 39.5 L179.5 -0.5 Z"
           id="path4132" />
      </clipPath>
      <clipPath
         clipPathUnits="userSpaceOnUse"
         id="clipPath4">
        <path
           d="M0 0 L0 130 L180 130 L180 0 Z"
           id="path4135" />
      </clipPath>
      <clipPath
         clipPathUnits="userSpaceOnUse"
         id="clipPath5">
        <path
           d="M-0.5 -0.5 L-0.5 129.5 L179.5 129.5 L179.5 -0.5 Z"
           id="path4138" />
      </clipPath>
      <clipPath
         clipPathUnits="userSpaceOnUse"
         id="clipPath6">
        <path
           d="M0 0 L0 250 L240 250 L240 0 Z"
           id="path4141" />
      </clipPath>
      <clipPath
         clipPathUnits="userSpaceOnUse"
         id="clipPath7">
        <path
           d="M0 0 L0 140 L180 140 L180 0 Z"
           id="path4144" />
      </clipPath>
      <clipPath
         clipPathUnits="userSpaceOnUse"
         id="clipPath8">
        <path
           d="M0 0 L0 200 L220 200 L220 0 Z"
           id="path4147" />
      </clipPath>
      <clipPath
         clipPathUnits="userSpaceOnUse"
         id="clipPath9">
        <path
           d="M0 0 L0 150 L190 150 L190 0 Z"
           id="path4150" />
      </clipPath>
      <clipPath
         clipPathUnits="userSpaceOnUse"
         id="clipPath10">
        <path
           d="M0 0 L0 90 L160 90 L160 0 Z"
           id="path4153" />
      </clipPath>
      <clipPath
         clipPathUnits="userSpaceOnUse"
         id="clipPath11">
        <path
           d="M0 0 L0 90 L150 90 L150 0 Z"
           id="path4156" />
      </clipPath>
      <clipPath
         clipPathUnits="userSpaceOnUse"
         id="clipPath12">
        <path
           d="M0 0 L0 30 L270 30 L270 0 Z"
           id="path4159" />
      </clipPath>
      <clipPath
         clipPathUnits="userSpaceOnUse"
         id="clipPath13">
        <path
           d="M0 0 L0 150 L140 150 L140 0 Z"
           id="path4162" />
      </clipPath>
      <clipPath
         clipPathUnits="userSpaceOnUse"
         id="clipPath14">
        <path
           d="M0 0 L0 190 L120 190 L120 0 Z"
           id="path4165" />
      </clipPath>
      <clipPath
         clipPathUnits="userSpaceOnUse"
         id="clipPath15">
        <path
           d="M0 0 L0 220 L110 220 L110 0 Z"
           id="path4168" />
      </clipPath>
    </defs>
    <g
       font-family="sans-serif"
       font-size="14"
       transform="translate(250.5,150.5)"
       id="g4170">
      <text
         x="29"
         xml:space="preserve"
         y="31"
         clip-path="url(#clipPath3)"
         stroke="none"
         id="text4172">HOME_SUMMARY</text>
      <line
         y2="7"
         fill="none"
         x1="0"
         clip-path="url(#clipPath3)"
         x2="0"
         y1="32"
         id="line4174" />
      <ellipse
         rx="90"
         ry="5.4798727"
         clip-path="url(#clipPath3)"
         cx="90"
         cy="7"
         id="ellipse4176"
         style="fill:none" />
      <line
         y2="32"
         fill="none"
         x1="179"
         clip-path="url(#clipPath3)"
         x2="179"
         y1="7"
         id="line4180" />
    </g>
    <g
       font-family="sans-serif"
       font-size="14"
       transform="translate(250.5,90.5)"
       id="g4182">
      <text
         x="75"
         xml:space="preserve"
         y="31"
         clip-path="url(#clipPath5)"
         stroke="none"
         id="text4184">VRC</text>
      <line
         y2="7"
         fill="none"
         x1="0"
         clip-path="url(#clipPath5)"
         x2="0"
         y1="122"
         id="line4186" />
      <ellipse
         rx="90"
         ry="5.9141951"
         clip-path="url(#clipPath5)"
         cx="90"
         cy="7"
         id="ellipse4188"
         style="fill:none" />
      <path
         fill="none"
         d="M0 122 A90 7 0 0 0 180 122"
         clip-path="url(#clipPath5)"
         id="path4190" />
      <line
         y2="122"
         fill="none"
         x1="179"
         clip-path="url(#clipPath5)"
         x2="179"
         y1="7"
         id="line4192" />
    </g>
    <g
       font-family="sans-serif"
       font-size="14"
       transform="translate(250.5,180.5)"
       id="g4194">
      <text
         x="7"
         xml:space="preserve"
         y="31"
         clip-path="url(#clipPath3)"
         stroke="none"
         id="text4196">STATISTICS_COUNTERS</text>
      <line
         y2="7"
         fill="none"
         x1="0"
         clip-path="url(#clipPath3)"
         x2="0"
         y1="32"
         id="line4198" />
      <ellipse
         rx="90"
         ry="5.262712"
         clip-path="url(#clipPath3)"
         cx="90"
         cy="7"
         id="ellipse4200"
         style="fill:none" />
      <path
         fill="none"
         d="M0 32 A90 7 0 0 0 180 32"
         clip-path="url(#clipPath3)"
         id="path4202" />
      <line
         y2="32"
         fill="none"
         x1="179"
         clip-path="url(#clipPath3)"
         x2="179"
         y1="7"
         id="line4204" />
    </g>
    <g
       fill="rgb(255,165,0)"
       fill-opacity="0.4902"
       transform="translate(470,210)"
       stroke-opacity="0.4902"
       stroke="rgb(255,165,0)"
       id="g4206">
      <path
         d="M0.5 0.5 L96.5 0.5 L96.5 21.6094 L239 21.6094 L239 249 L0.5 249 L0.5 0.5"
         clip-path="url(#clipPath6)"
         stroke="none"
         id="path4208" />
    </g>
    <g
       transform="translate(470,210)"
       id="g4210">
      <path
         fill="none"
         d="M0.5 0.5 L96.5 0.5 L96.5 21.6094 L239 21.6094 L239 249 L0.5 249 L0.5 0.5"
         clip-path="url(#clipPath6)"
         id="path4212" />
      <path
         fill="none"
         d="M0.5 21.6094 L96.5 21.6094"
         clip-path="url(#clipPath6)"
         id="path4214" />
      <text
         x="5"
         font-size="14"
         y="16.1094"
         clip-path="url(#clipPath6)"
         font-family="sans-serif"
         stroke="none"
         xml:space="preserve"
         id="text4216">finally</text>
    </g>
    <g
       fill="rgb(255,165,0)"
       fill-opacity="0.4902"
       transform="translate(100,280)"
       stroke-opacity="0.4902"
       stroke="rgb(255,165,0)"
       id="g4218">
      <path
         d="M0.5 0.5 L72.5 0.5 L72.5 21.6094 L179 21.6094 L179 139 L0.5 139 L0.5 0.5"
         clip-path="url(#clipPath7)"
         stroke="none"
         id="path4220" />
    </g>
    <g
       transform="translate(100,280)"
       id="g4222">
      <path
         fill="none"
         d="M0.5 0.5 L72.5 0.5 L72.5 21.6094 L179 21.6094 L179 139 L0.5 139 L0.5 0.5"
         clip-path="url(#clipPath7)"
         id="path4224" />
      <path
         fill="none"
         d="M0.5 21.6094 L72.5 21.6094"
         clip-path="url(#clipPath7)"
         id="path4226" />
      <text
         x="5"
         font-size="14"
         y="16.1094"
         clip-path="url(#clipPath7)"
         font-family="sans-serif"
         stroke="none"
         xml:space="preserve"
         id="text4228">waiting</text>
    </g>
    <g
       fill="rgb(255,165,0)"
       fill-opacity="0.4902"
       transform="translate(480,240)"
       stroke-opacity="0.4902"
       stroke="rgb(255,165,0)"
       id="g4230">
      <path
         d="M0.5 0.5 L88.5 0.5 L88.5 21.6094 L219 21.6094 L219 199 L0.5 199 L0.5 0.5"
         clip-path="url(#clipPath8)"
         stroke="none"
         id="path4232" />
    </g>
    <g
       transform="translate(480,240)"
       id="g4234">
      <path
         fill="none"
         d="M0.5 0.5 L88.5 0.5 L88.5 21.6094 L219 21.6094 L219 199 L0.5 199 L0.5 0.5"
         clip-path="url(#clipPath8)"
         id="path4236" />
      <path
         fill="none"
         d="M0.5 21.6094 L88.5 21.6094"
         clip-path="url(#clipPath8)"
         id="path4238" />
      <text
         x="5"
         font-size="14"
         y="16.1094"
         clip-path="url(#clipPath8)"
         font-family="sans-serif"
         stroke="none"
         xml:space="preserve"
         id="text4240">2015-06</text>
    </g>
    <g
       fill="rgb(255,165,0)"
       fill-opacity="0.4902"
       transform="translate(490,270)"
       stroke-opacity="0.4902"
       stroke="rgb(255,165,0)"
       id="g4242">
      <path
         d="M0.5 0.5 L76.5 0.5 L76.5 21.6094 L189 21.6094 L189 149 L0.5 149 L0.5 0.5"
         clip-path="url(#clipPath9)"
         stroke="none"
         id="path4244" />
    </g>
    <g
       transform="translate(490,270)"
       id="g4246">
      <path
         fill="none"
         d="M0.5 0.5 L76.5 0.5 L76.5 21.6094 L189 21.6094 L189 149 L0.5 149 L0.5 0.5"
         clip-path="url(#clipPath9)"
         id="path4248" />
      <path
         fill="none"
         d="M0.5 21.6094 L76.5 21.6094"
         clip-path="url(#clipPath9)"
         id="path4250" />
      <text
         x="5"
         font-size="14"
         y="16.1094"
         clip-path="url(#clipPath9)"
         font-family="sans-serif"
         stroke="none"
         xml:space="preserve"
         id="text4252">12</text>
    </g>
    <g
       fill="rgb(255,255,255)"
       fill-opacity="0.4902"
       transform="translate(500,310)"
       stroke-opacity="0.4902"
       stroke="rgb(255,255,255)"
       id="g4254">
      <path
         d="M0.5 0.5 L148.5 0.5 L159 12.5 L159 89 L0.5 89 L0.5 0.5"
         clip-path="url(#clipPath10)"
         stroke="none"
         id="path4256" />
    </g>
    <g
       transform="translate(500,310)"
       id="g4258">
      <path
         fill="none"
         d="M0.5 0.5 L148.5 0.5 L159 12.5 L159 89 L0.5 89 L0.5 0.5"
         clip-path="url(#clipPath10)"
         id="path4260" />
      <path
         fill="none"
         d="M148.5 0.5 L148.5 12.5 L159 12.5"
         clip-path="url(#clipPath10)"
         id="path4262" />
      <text
         x="5"
         font-size="14"
         y="18.1094"
         clip-path="url(#clipPath10)"
         font-family="sans-serif"
         stroke="none"
         xml:space="preserve"
         id="text4264">1337-monitoring.log</text>
    </g>
    <g
       fill="rgb(255,255,255)"
       fill-opacity="0.4902"
       transform="translate(110,310)"
       stroke-opacity="0.4902"
       stroke="rgb(255,255,255)"
       id="g4266">
      <path
         d="M0.5 0.5 L138.5 0.5 L149 12.5 L149 89 L0.5 89 L0.5 0.5"
         clip-path="url(#clipPath11)"
         stroke="none"
         id="path4268" />
    </g>
    <g
       transform="translate(110,310)"
       id="g4270">
      <path
         fill="none"
         d="M0.5 0.5 L138.5 0.5 L149 12.5 L149 89 L0.5 89 L0.5 0.5"
         clip-path="url(#clipPath11)"
         id="path4272" />
      <path
         fill="none"
         d="M138.5 0.5 L138.5 12.5 L149 12.5"
         clip-path="url(#clipPath11)"
         id="path4274" />
      <text
         x="5"
         font-size="14"
         y="18.1094"
         clip-path="url(#clipPath11)"
         font-family="sans-serif"
         stroke="none"
         xml:space="preserve"
         id="text4276">2015-06-12-1337-</text>
      <text
         x="5"
         font-size="14"
         y="34.2188"
         clip-path="url(#clipPath11)"
         font-family="sans-serif"
         stroke="none"
         xml:space="preserve"
         id="text4278">monitoring.log</text>
    </g>
    <g
       transform="translate(250,350)"
       id="g4280">
      <path
         fill="none"
         d="M250.5 10.5 L10.5 10.5"
         clip-path="url(#clipPath12)"
         id="path4282" />
      <path
         fill="none"
         d="M239.2417 4 L250.5 10.5 L239.2417 17"
         clip-path="url(#clipPath12)"
         id="path4284" />
    </g>
    <g
       fill="rgb(255,175,175)"
       fill-opacity="0.4902"
       transform="translate(310,290)"
       stroke-opacity="0.4902"
       stroke="rgb(255,175,175)"
       id="g4286">
      <rect
         x="0.5"
         width="138.5"
         height="148.5"
         y="0.5"
         clip-path="url(#clipPath13)"
         stroke="none"
         id="rect4288" />
    </g>
    <g
       fill="red"
       transform="translate(310,290)"
       stroke="red"
       id="g4290">
      <rect
         fill="none"
         x="0.5"
         width="138.5"
         height="148.5"
         y="0.5"
         clip-path="url(#clipPath13)"
         id="rect4292" />
      <text
         x="47"
         font-size="14"
         y="18.1094"
         clip-path="url(#clipPath13)"
         font-family="sans-serif"
         stroke="none"
         xml:space="preserve"
         id="text4294">Parser</text>
    </g>
    <g
       transform="translate(350,190)"
       id="g4296">
      <path
         d="M 80.521186,10.748941 C 134.2483,98.884868 51.847453,168.96514 -2.2383476,170.44703"
         clip-path="url(#clipPath14)"
         id="path4300"
         inkscape:connector-curvature="0"
         style="fill:none"
         sodipodi:nodetypes="cc" />
      <path
         d="M81.3367 23.473 L80.5 10.5 L92.1533 16.2619"
         clip-path="url(#clipPath14)"
         id="path4306"
         fill="none" />
    </g>
    <g
       transform="translate(370,160)"
       id="g4308">
      <path
         d="M 60.748941,10.748941 C 147.72515,139.5471 52.423353,203.59676 6.2415253,200.39407"
         clip-path="url(#clipPath15)"
         id="path4314"
         inkscape:connector-curvature="0"
         style="fill:none"
         sodipodi:nodetypes="cc" />
      <path
         d="M 62.518773,22.577148 60.5,10.5 72.401708,12.792221"
         clip-path="url(#clipPath15)"
         id="path4322"
         inkscape:connector-curvature="0"
         style="fill:none"
         sodipodi:nodetypes="ccc" />
    </g>
  </g>
</svg>
